<?xml version="1.0" encoding="UTF-8" standalone="no"?>
<!-- Created with Inkscape (http://www.inkscape.org/) -->

<svg
   xmlns:dc="http://purl.org/dc/elements/1.1/"
   xmlns:cc="http://creativecommons.org/ns#"
   xmlns:rdf="http://www.w3.org/1999/02/22-rdf-syntax-ns#"
   xmlns:svg="http://www.w3.org/2000/svg"
   xmlns="http://www.w3.org/2000/svg"
   xmlns:sodipodi="http://sodipodi.sourceforge.net/DTD/sodipodi-0.dtd"
   xmlns:inkscape="http://www.inkscape.org/namespaces/inkscape"
   id="svg2"
   version="1.1"
   inkscape:version="0.91 r13725"
   xml:space="preserve"
   width="342.1875"
   height="169.6875"
   viewBox="0 0 342.1875 169.6875"
   sodipodi:docname="Architecture.svg"><metadata
     id="metadata8"><rdf:RDF><cc:Work
         rdf:about=""><dc:format>image/svg+xml</dc:format><dc:type
           rdf:resource="http://purl.org/dc/dcmitype/StillImage" /><dc:title></dc:title></cc:Work></rdf:RDF></metadata><defs
     id="defs6"><clipPath
       clipPathUnits="userSpaceOnUse"
       id="clipPath18"><path
         d="m -2,-2 458,0 0,318 -458,0 0,-318 z"
         id="path20"
         inkscape:connector-curvature="0" /></clipPath></defs><sodipodi:namedview
     pagecolor="#ffffff"
     bordercolor="#666666"
     borderopacity="1"
     objecttolerance="10"
     gridtolerance="10"
     guidetolerance="10"
     inkscape:pageopacity="0"
     inkscape:pageshadow="2"
     inkscape:window-width="3840"
     inkscape:window-height="2081"
     id="namedview4"
     showgrid="false"
     fit-margin-top="0"
     fit-margin-left="0"
     fit-margin-right="0"
     fit-margin-bottom="0"
     inkscape:zoom="3.4902421"
     inkscape:cx="188.25773"
     inkscape:cy="72.535155"
     inkscape:window-x="3840"
     inkscape:window-y="0"
     inkscape:window-maximized="1"
     inkscape:current-layer="g10" /><g
     id="g10"
     inkscape:groupmode="layer"
     inkscape:label="Architecture"
     transform="matrix(1.25,0,0,-1.25,-366.5625,614.0625)"><path
       inkscape:connector-curvature="0"
       id="path28"
       style="fill:#fff2cc;fill-opacity:1;fill-rule:nonzero;stroke:none"
       d="m 293.25,457.5 69,0 0,-68.25 -69,0 0,68.25 z" /><path
       inkscape:connector-curvature="0"
       id="path30"
       style="fill:#d9ead3;fill-opacity:1;fill-rule:nonzero;stroke:none"
       d="m 361.5,457.5 69,0 0,-34.5 -69,0 0,34.5 z" /><path
       inkscape:connector-curvature="0"
       id="path32"
       style="fill:#ead1dc;fill-opacity:1;fill-rule:nonzero;stroke:none"
       d="m 429.75,457.5 137.25,0 0,-34.5 -137.25,0 0,34.5 z" /><path
       inkscape:connector-curvature="0"
       id="path34"
       style="fill:#fff2cc;fill-opacity:1;fill-rule:nonzero;stroke:none"
       d="m 361.5,423.75 69,0 0,-34.5 -69,0 0,34.5 z" /><path
       inkscape:connector-curvature="0"
       id="path36"
       style="fill:#ead1dc;fill-opacity:1;fill-rule:nonzero;stroke:none"
       d="m 429.75,423.75 137.25,0 0,-34.5 -137.25,0 0,34.5 z" /><path
       inkscape:connector-curvature="0"
       id="path38"
       style="fill:#c9daf8;fill-opacity:1;fill-rule:nonzero;stroke:none"
       d="m 293.25,390 273.75,0 0,-34.5 -273.75,0 0,34.5 z" /><path
       inkscape:connector-curvature="0"
       id="path40"
       style="fill:none;stroke:#000000;stroke-width:0.75;stroke-linecap:butt;stroke-linejoin:miter;stroke-miterlimit:10;stroke-dasharray:none;stroke-opacity:1"
       d="m 293.625,491.25 0,-135.75 m 68.25,102 0,-34.5 m -0.375,0.375 69,0 m -0.375,34.125 0,-68.25 m -136.875,101.625 273.75,0 m -273.75,-33.75 273.75,0 m -273.75,-67.5 273.75,0 m -273.75,-33.75 273.75,0 m -0.375,135.375 0,-135.75" /><text
       id="text42"
       style="font-variant:normal;font-weight:normal;font-size:11.69999981px;font-family:Roboto;-inkscape-font-specification:Roboto-Regular;writing-mode:lr-tb;fill:#000000;fill-opacity:1;fill-rule:nonzero;stroke:none"
       transform="scale(1,-1)"
       x="400.5"
       y="-470.64984"><tspan
         id="tspan44"
         sodipodi:role="line"
         y="-470.64984"
         x="400.5 408.12839 414.69211 421.2558 424.08719 426.91861 433.03769 439.39081 443.20499 446.03641 452.70538">Application</tspan></text>
<text
       id="text46"
       style="font-variant:normal;font-weight:normal;font-size:11.69999981px;font-family:Roboto;-inkscape-font-specification:Roboto-Regular;writing-mode:lr-tb;fill:#000000;fill-opacity:1;fill-rule:nonzero;stroke:none"
       transform="scale(1,-1)"
       x="372"
       y="-443.64984"><tspan
         id="tspan48"
         sodipodi:role="line"
         y="-443.64984"
         x="372 378.93811 382.75229 389.10541 395.55209 402.13919 408.49231 412.4469">Standard</tspan></text>
<text
       id="text50"
       style="font-variant:normal;font-weight:normal;font-size:11.69999981px;font-family:Roboto;-inkscape-font-specification:Roboto-Regular;writing-mode:lr-tb;fill:#000000;fill-opacity:1;fill-rule:nonzero;stroke:none"
       transform="scale(1,-1)"
       x="371.25"
       y="-429.9444"><tspan
         id="tspan52"
         sodipodi:role="line"
         y="-429.9444"
         x="371.25 375.30991 381.75659 388.20331 394.32239 398.1366 400.96799 407.63699 414.08371">functions</tspan></text>
<text
       id="text54"
       style="font-variant:normal;font-weight:normal;font-size:11.69999981px;font-family:Roboto;-inkscape-font-specification:Roboto-Regular;writing-mode:lr-tb;fill:#000000;fill-opacity:1;fill-rule:nonzero;stroke:none"
       transform="scale(1,-1)"
       x="449.25"
       y="-419.64984"><tspan
         id="tspan56"
         sodipodi:role="line"
         y="-419.64984"
         x="449.25 456.85501 463.3017 469.32721 473.14139 479.81039 490.0596 492.94949 499.53659 505.88971 509.70389 516.05701 518.9469 522.76111 528.29517 534.85889 541.04822">Custom data types</tspan></text>
<text
       id="text58"
       style="font-variant:normal;font-weight:normal;font-size:11.69999981px;font-family:Roboto;-inkscape-font-specification:Roboto-Regular;writing-mode:lr-tb;fill:#000000;fill-opacity:1;fill-rule:nonzero;stroke:none"
       transform="scale(1,-1)"
       x="309.75"
       y="-403.14984"><tspan
         id="tspan60"
         sodipodi:role="line"
         y="-403.14984"
         x="309.75 316.68811 320.50229 326.85541 333.30209 339.88919 346.24231 350.1969 356.784 359.67389 366.26099 372.61411 376.42828 382.7814 385.6713 389.4855 395.01959 401.58328 407.77258">Standard data types</tspan></text>
<text
       id="text62"
       style="font-variant:normal;font-weight:normal;font-size:11.69999981px;font-family:Roboto;-inkscape-font-specification:Roboto-Regular;writing-mode:lr-tb;fill:#000000;fill-opacity:1;fill-rule:nonzero;stroke:none"
       transform="scale(1,-1)"
       x="367.5"
       y="-369.39984"><tspan
         id="tspan64"
         sodipodi:role="line"
         y="-369.39984"
         x="367.5 375.10501 382.7334 391.06381 393.9537 400.5174 406.96411 412.98959 415.87949 419.6937 423.64828 430.0014 436.44809 442.4736 449.03729 455.7063 459.66089 463.4751 466.36499 469.19638 475.5495 481.08359 487.27289">CAN bus transport layer</tspan></text>
</g></svg>