<?xml version="1.0" encoding="UTF-8" standalone="no"?>
<!-- Created with Inkscape (http://www.inkscape.org/) -->

<svg
   xmlns:dc="http://purl.org/dc/elements/1.1/"
   xmlns:cc="http://creativecommons.org/ns#"
   xmlns:rdf="http://www.w3.org/1999/02/22-rdf-syntax-ns#"
   xmlns:svg="http://www.w3.org/2000/svg"
   xmlns="http://www.w3.org/2000/svg"
   xmlns:sodipodi="http://sodipodi.sourceforge.net/DTD/sodipodi-0.dtd"
   xmlns:inkscape="http://www.inkscape.org/namespaces/inkscape"
   id="svg2"
   version="1.1"
   inkscape:version="0.91 r13725"
   xml:space="preserve"
   width="342.1875"
   height="211.875"
   viewBox="0 0 342.1875 211.875"
   sodipodi:docname="Architecture.svg"><metadata
     id="metadata8"><rdf:RDF><cc:Work
         rdf:about=""><dc:format>image/svg+xml</dc:format><dc:type
           rdf:resource="http://purl.org/dc/dcmitype/StillImage" /><dc:title></dc:title></cc:Work></rdf:RDF></metadata><defs
     id="defs6"><clipPath
       clipPathUnits="userSpaceOnUse"
       id="clipPath18"><path
         d="m -2,-2 458,0 0,363 -458,0 0,-363 z"
         id="path20"
         inkscape:connector-curvature="0" /></clipPath></defs><sodipodi:namedview
     pagecolor="#ffffff"
     bordercolor="#666666"
     borderopacity="1"
     objecttolerance="10"
     gridtolerance="10"
     guidetolerance="10"
     inkscape:pageopacity="0"
     inkscape:pageshadow="2"
     inkscape:window-width="3840"
     inkscape:window-height="2081"
     id="namedview4"
     showgrid="false"
     fit-margin-top="0"
     fit-margin-left="0"
     fit-margin-right="0"
     fit-margin-bottom="0"
     inkscape:zoom="1.745121"
     inkscape:cx="129.59387"
     inkscape:cy="54.62225"
     inkscape:window-x="3840"
     inkscape:window-y="0"
     inkscape:window-maximized="1"
     inkscape:current-layer="g10" /><g
     id="g10"
     inkscape:groupmode="layer"
     inkscape:label="Architecture"
     transform="matrix(1.25,0,0,-1.25,-366.5625,614.0625)"><path
       inkscape:connector-curvature="0"
       id="path28"
       style="fill:#fff2cc;fill-opacity:1;fill-rule:nonzero;stroke:none"
       d="m 293.25,457.5 69,0 0,-102 -69,0 0,102 z" /><path
       inkscape:connector-curvature="0"
       id="path30"
       style="fill:#d9ead3;fill-opacity:1;fill-rule:nonzero;stroke:none"
       d="m 361.5,457.5 69,0 0,-34.5 -69,0 0,34.5 z" /><path
       inkscape:connector-curvature="0"
       id="path32"
       style="fill:#ead1dc;fill-opacity:1;fill-rule:nonzero;stroke:none"
       d="m 429.75,457.5 137.25,0 0,-34.5 -137.25,0 0,34.5 z" /><path
       inkscape:connector-curvature="0"
       id="path34"
       style="fill:#fff2cc;fill-opacity:1;fill-rule:nonzero;stroke:none"
       d="m 361.5,423.75 69,0 0,-68.25 -69,0 0,68.25 z" /><path
       inkscape:connector-curvature="0"
       id="path36"
       style="fill:#ead1dc;fill-opacity:1;fill-rule:nonzero;stroke:none"
       d="m 429.75,423.75 137.25,0 0,-68.25 -137.25,0 0,68.25 z" /><path
       inkscape:connector-curvature="0"
       id="path38"
       style="fill:#c9daf8;fill-opacity:1;fill-rule:nonzero;stroke:none"
       d="m 293.25,356.25 273.75,0 0,-34.5 -273.75,0 0,34.5 z" /><path
       inkscape:connector-curvature="0"
       id="path40"
       style="fill:none;stroke:#000000;stroke-width:0.75;stroke-linecap:butt;stroke-linejoin:miter;stroke-miterlimit:10;stroke-dasharray:none;stroke-opacity:1"
       d="m 293.625,491.25 0,-169.5 m 68.25,135.75 0,-34.5 m -0.375,0.375 69,0 m -0.375,34.125 0,-102 m -136.875,135.375 273.75,0 m -273.75,-33.75 273.75,0 m -273.75,-101.25 273.75,0 m -273.75,-33.75 273.75,0 m -0.375,169.125 0,-169.5" /><path
       inkscape:connector-curvature="0"
       id="path42"
       style="fill:none;stroke:#000000;stroke-width:0.75;stroke-linecap:butt;stroke-linejoin:miter;stroke-miterlimit:10;stroke-dasharray:1.5, 1.5;stroke-dashoffset:0;stroke-opacity:1"
       d="m 294,389.625 135.75,0 m 0.75,0 135.75,0" /><text
       id="text44"
       style="font-variant:normal;font-weight:normal;font-size:11.69999981px;font-family:Roboto;-inkscape-font-specification:Roboto-Regular;writing-mode:lr-tb;fill:#000000;fill-opacity:1;fill-rule:nonzero;stroke:none"
       transform="scale(1,-1)"
       x="400.5"
       y="-470.64984"><tspan
         id="tspan46"
         sodipodi:role="line"
         y="-470.64984"
         x="400.5 408.12839 414.69211 421.2558 424.08719 426.91861 433.03769 439.39081 443.20499 446.03641 452.70538">Application</tspan></text>
<text
       id="text48"
       style="font-variant:normal;font-weight:normal;font-size:11.69999981px;font-family:Roboto;-inkscape-font-specification:Roboto-Regular;writing-mode:lr-tb;fill:#000000;fill-opacity:1;fill-rule:nonzero;stroke:none"
       transform="scale(1,-1)"
       x="372"
       y="-443.64984"><tspan
         id="tspan50"
         sodipodi:role="line"
         y="-443.64984"
         x="372 378.93811 382.75229 389.10541 395.55209 402.13919 408.49231 412.4469">Standard</tspan></text>
<text
       id="text52"
       style="font-variant:normal;font-weight:normal;font-size:11.69999981px;font-family:Roboto;-inkscape-font-specification:Roboto-Regular;writing-mode:lr-tb;fill:#000000;fill-opacity:1;fill-rule:nonzero;stroke:none"
       transform="scale(1,-1)"
       x="371.25"
       y="-429.9444"><tspan
         id="tspan54"
         sodipodi:role="line"
         y="-429.9444"
         x="371.25 375.30991 381.75659 388.20331 394.32239 398.1366 400.96799 407.63699 414.08371">functions</tspan></text>
<text
       id="text56"
       style="font-variant:normal;font-weight:normal;font-size:11.69999981px;font-family:Roboto;-inkscape-font-specification:Roboto-Regular;writing-mode:lr-tb;fill:#000000;fill-opacity:1;fill-rule:nonzero;stroke:none"
       transform="scale(1,-1)"
       x="457.5"
       y="-433.14984"><tspan
         id="tspan58"
         sodipodi:role="line"
         y="-433.14984"
         x="457.5 464.94119 471.13049 477.57721 484.16431 490.83331 494.7879 498.0054 504.03088 510.5946 516.78387 522.90302 525.73438 529.79431 532.62567">Vendor-specific</tspan></text>
<text
       id="text60"
       style="font-variant:normal;font-weight:normal;font-size:11.69999981px;font-family:Roboto;-inkscape-font-specification:Roboto-Regular;writing-mode:lr-tb;fill:#000000;fill-opacity:1;fill-rule:nonzero;stroke:none"
       transform="scale(1,-1)"
       x="471"
       y="-419.4444"><tspan
         id="tspan62"
         sodipodi:role="line"
         y="-419.4444"
         x="471 477.5871 483.94019 487.75439 494.10748 496.99741 500.81158 506.3457 512.90942 519.09869">data types</tspan></text>
<text
       id="text64"
       style="font-variant:normal;font-weight:normal;font-size:11.69999981px;font-family:Roboto;-inkscape-font-specification:Roboto-Regular;writing-mode:lr-tb;fill:#000000;fill-opacity:1;fill-rule:nonzero;stroke:none"
       transform="scale(1,-1)"
       x="472.5"
       y="-405.73898"><tspan
         id="tspan66"
         sodipodi:role="line"
         y="-405.73898"
         x="472.5 476.48969 483.15869 489.72241 493.53659 496.36801 503.03699 509.4837 515.83679 518.66821">(optional)</tspan></text>
<text
       id="text68"
       style="font-variant:normal;font-weight:normal;font-size:11.69999981px;font-family:Roboto;-inkscape-font-specification:Roboto-Regular;writing-mode:lr-tb;fill:#000000;fill-opacity:1;fill-rule:nonzero;stroke:none"
       transform="scale(1,-1)"
       x="309.75"
       y="-403.14984"><tspan
         id="tspan70"
         sodipodi:role="line"
         y="-403.14984"
         x="309.75 316.68811 320.50229 326.85541 333.30209 339.88919 346.24231 350.1969 356.784 359.67389 366.26099 372.61411 376.42828 382.7814 385.6713 389.4855 395.01959 401.58328 407.77258">Standard data types</tspan></text>
<text
       id="text72"
       style="font-variant:normal;font-weight:normal;font-size:9.75px;font-family:Roboto;-inkscape-font-specification:Roboto-Regular;writing-mode:lr-tb;fill:#000000;fill-opacity:1;fill-rule:nonzero;stroke:none"
       transform="scale(1,-1)"
       x="326.25"
       y="-369.70459"><tspan
         id="tspan74"
         sodipodi:role="line"
         y="-369.70459"
         x="326.25 332.03174 337.18951 340.48499 342.84451 348.13876 350.49826 352.85776 357.68399 362.97824 366.15674 368.51624 374.07376 379.44601">Serialization </tspan></text>
<text
       id="text76"
       style="font-variant:normal;font-weight:normal;font-size:9.75px;font-family:Roboto;-inkscape-font-specification:Roboto-Regular;writing-mode:lr-tb;fill:#000000;fill-opacity:1;fill-rule:nonzero;stroke:none"
       transform="scale(1,-1)"
       x="471"
       y="-369.70459"><tspan
         id="tspan78"
         sodipodi:role="line"
         y="-369.70459"
         x="471 476.78174 481.93951 485.23499 487.59451 492.88876 495.24826 497.60776 502.43399 507.72824 510.90674 513.26624 518.82373">Serialization</tspan></text>
<text
       id="text80"
       style="font-variant:normal;font-weight:normal;font-size:11.69999981px;font-family:Roboto;-inkscape-font-specification:Roboto-Regular;writing-mode:lr-tb;fill:#000000;fill-opacity:1;fill-rule:nonzero;stroke:none"
       transform="scale(1,-1)"
       x="367.5"
       y="-335.64984"><tspan
         id="tspan82"
         sodipodi:role="line"
         y="-335.64984"
         x="367.5 375.10501 382.7334 391.06381 393.9537 400.5174 406.96411 412.98959 415.87949 419.6937 423.64828 430.0014 436.44809 442.4736 449.03729 455.7063 459.66089 463.4751 466.36499 469.19638 475.5495 481.08359 487.27289">CAN bus transport layer</tspan></text>
</g></svg>