<?xml version="1.0" encoding="UTF-8" standalone="no"?>
<svg
   version="1.1"
   viewBox="909 520 1584.1279 509.95203"
   width="1584.1279"
   height="509.95203"
   id="svg50"
   sodipodi:docname="cyphal_logo.svg"
   inkscape:version="1.1.2 (0a00cf5339, 2022-02-04, custom)"
   xmlns:inkscape="http://www.inkscape.org/namespaces/inkscape"
   xmlns:sodipodi="http://sodipodi.sourceforge.net/DTD/sodipodi-0.dtd"
   xmlns="http://www.w3.org/2000/svg"
   xmlns:svg="http://www.w3.org/2000/svg">
  <sodipodi:namedview
     id="namedview52"
     pagecolor="#ffffff"
     bordercolor="#666666"
     borderopacity="1.0"
     inkscape:pageshadow="2"
     inkscape:pageopacity="0.0"
     inkscape:pagecheckerboard="0"
     showgrid="false"
     fit-margin-top="0"
     fit-margin-left="0"
     fit-margin-right="0"
     fit-margin-bottom="0"
     inkscape:zoom="0.56223456"
     inkscape:cx="78.259152"
     inkscape:cy="216.10198"
     inkscape:window-width="3840"
     inkscape:window-height="2087"
     inkscape:window-x="3840"
     inkscape:window-y="0"
     inkscape:window-maximized="1"
     inkscape:current-layer="svg50" />
  <defs
     id="defs2" />
  <g
     id="Graphic_13"
     style="fill:none;fill-opacity:1;stroke:none;stroke-dasharray:none;stroke-opacity:1"
     transform="translate(-1452.824,-98.927979)">
    <path
       d="m 2630.112,728.496 c -13.3122,-14.3361 -26.1974,-23.8933 -38.656,-28.672 -12.4588,-4.7787 -25.0027,-7.168 -37.632,-7.168 -18.7735,0 -35.7547,3.328 -50.944,9.984 -15.1895,6.656 -28.2454,15.8719 -39.168,27.648 -10.9228,11.7761 -19.3707,25.5146 -25.344,41.216 -5.9735,15.7014 -8.96,32.5972 -8.96,50.688 0,19.4561 2.9865,37.3759 8.96,53.76 5.9733,16.3841 14.4212,30.5493 25.344,42.496 10.9226,11.9467 23.9785,21.3333 39.168,28.16 15.1893,6.8267 32.1705,10.24 50.944,10.24 14.6773,0 28.9278,-3.4986 42.752,-10.496 13.824,-6.9974 26.7092,-18.1759 38.656,-33.536 l 53.248,37.888 c -16.3842,22.5281 -36.352,38.912 -59.904,49.152 -23.5522,10.24 -48.64,15.36 -75.264,15.36 -27.9896,0 -53.6747,-4.5226 -77.056,-13.568 -23.3816,-9.0454 -43.52,-21.8453 -60.416,-38.4 -16.8962,-16.5547 -30.1227,-36.4372 -39.68,-59.648 -9.5575,-23.2108 -14.336,-48.9812 -14.336,-77.312 0,-29.0135 4.7785,-55.3812 14.336,-79.104 9.5573,-23.7228 22.7838,-43.9466 39.68,-60.672 16.896,-16.7254 37.0344,-29.6106 60.416,-38.656 23.3813,-9.0454 49.0664,-13.568 77.056,-13.568 24.576,0 47.3598,4.35196 68.352,13.056 20.992,8.70404 40.533,23.4666 58.624,44.288 z"
       fill="#1709b3"
       id="path13" />
  </g>
  <g
     id="Graphic_14"
     style="fill:none;fill-opacity:1;stroke:none;stroke-dasharray:none;stroke-opacity:1"
     transform="translate(-1452.824,-98.927979)">
    <path
       d="m 2693.088,760.24 h 67.584 l 68.608,170.496 h 1.024 l 61.44,-170.496 h 64 l -116.224,298.496 c -4.4375,11.6054 -9.3014,21.76 -14.592,30.464 -5.2908,8.704 -11.52,16.0426 -18.688,22.016 -7.168,5.9734 -15.616,10.4107 -25.344,13.312 -9.728,2.9013 -21.4187,4.352 -35.072,4.352 -16.043,0 -31.744,-2.048 -47.104,-6.144 l 7.68,-55.296 c 4.7786,1.7067 9.8132,3.1573 15.104,4.352 5.2906,1.1947 10.6665,1.792 16.128,1.792 7.5093,0 13.824,-0.6827 18.944,-2.048 5.12,-1.3653 9.472,-3.4987 13.056,-6.4 3.584,-2.9013 6.5706,-6.656 8.96,-11.264 2.3892,-4.608 4.9492,-10.1546 7.68,-16.64 l 11.776,-29.184 z"
       fill="#1709b3"
       id="path16" />
  </g>
  <g
     id="Graphic_15"
     style="fill:none;fill-opacity:1;stroke:none;stroke-dasharray:none;stroke-opacity:1"
     transform="translate(-1452.824,-98.927979)">
    <path
       d="m 2992.096,760.24 h 58.368 v 36.864 h 1.024 c 8.8746,-15.0187 20.821,-25.9413 35.84,-32.768 15.0186,-6.8267 31.2318,-10.24 48.64,-10.24 18.7733,0 35.669,3.328 50.688,9.984 15.0186,6.656 27.8185,15.7866 38.4,27.392 10.5813,11.6054 18.6025,25.2586 24.064,40.96 5.4613,15.7014 8.192,32.5972 8.192,50.688 0,18.0908 -2.9014,34.9866 -8.704,50.688 -5.8028,15.7014 -13.9094,29.3546 -24.32,40.96 -10.411,11.6054 -22.9547,20.736 -37.632,27.392 -14.6775,6.656 -30.72,9.984 -48.128,9.984 -11.6055,0 -21.8454,-1.1947 -30.72,-3.584 -8.8748,-2.3893 -16.7254,-5.4613 -23.552,-9.216 -6.8268,-3.7547 -12.6294,-7.7653 -17.408,-12.032 -4.7788,-4.2667 -8.704,-8.448 -11.776,-12.544 h -1.536 v 147.968 h -61.44 z m 203.776,122.88 c 0,-9.5574 -1.6214,-18.7733 -4.864,-27.648 -3.2428,-8.8747 -8.0214,-16.7253 -14.336,-23.552 -6.3148,-6.8267 -13.9094,-12.288 -22.784,-16.384 -8.875,-4.096 -18.944,-6.144 -30.208,-6.144 -11.264,0 -21.3334,2.048 -30.208,6.144 -8.8748,4.096 -16.4694,9.5573 -22.784,16.384 -6.3148,6.8267 -11.0934,14.6773 -14.336,23.552 -3.2428,8.8747 -4.864,18.0906 -4.864,27.648 0,9.5574 1.6212,18.7733 4.864,27.648 3.2426,8.8747 8.0212,16.7253 14.336,23.552 6.3146,6.8267 13.9092,12.288 22.784,16.384 8.8746,4.096 18.944,6.144 30.208,6.144 11.264,0 21.333,-2.048 30.208,-6.144 8.8746,-4.096 16.4692,-9.5573 22.784,-16.384 6.3146,-6.8267 11.0932,-14.6773 14.336,-23.552 3.2426,-8.8747 4.864,-18.0906 4.864,-27.648 z"
       fill="#1709b3"
       id="path19" />
  </g>
  <g
     id="Graphic_16"
     style="fill:none;fill-opacity:1;stroke:none;stroke-dasharray:none;stroke-opacity:1"
     transform="translate(-1452.824,-98.927979)">
    <path
       d="m 3376.096,794.544 h 1.024 c 4.7786,-10.24005 13.2265,-19.5413 25.344,-27.904 12.1173,-8.3627 27.733,-12.544 46.848,-12.544 16.384,0 30.293,2.7306 41.728,8.192 11.4346,5.4614 20.736,12.6293 27.904,21.504 7.168,8.8747 12.288,19.1146 15.36,30.72 3.072,11.6054 4.608,23.7226 4.608,36.352 V 1006 h -61.44 V 881.584 c 0,-6.8267 -0.3414,-14.4213 -1.024,-22.784 -0.6828,-8.3627 -2.4748,-16.2133 -5.376,-23.552 -2.9014,-7.3387 -7.424,-13.4826 -13.568,-18.432 -6.144,-4.9494 -14.5067,-7.424 -25.088,-7.424 -10.24,0 -18.8587,1.70665 -25.856,5.12 -6.9975,3.41335 -12.8,8.0213 -17.408,13.824 -4.608,5.8027 -7.936,12.4586 -9.984,19.968 -2.048,7.5094 -3.072,15.36 -3.072,23.552 V 1006 h -61.44 V 618.928 h 61.44 z"
       fill="#1709b3"
       id="path22" />
  </g>
  <g
     id="Graphic_17"
     style="fill:none;fill-opacity:1;stroke:none;stroke-dasharray:none;stroke-opacity:1"
     transform="translate(-1452.824,-98.927979)">
    <path
       d="m 3762.144,972.208 h -1.536 c -8.875,13.9947 -20.1387,24.1493 -33.792,30.464 -13.6535,6.3147 -28.672,9.472 -45.056,9.472 -11.264,0 -22.272,-1.536 -33.024,-4.608 -10.752,-3.072 -20.3094,-7.68 -28.672,-13.824 -8.363,-6.144 -15.104,-13.824 -20.224,-23.04 -5.12,-9.216 -7.68,-19.9679 -7.68,-32.256 0,-13.3121 2.389,-24.6613 7.168,-34.048 4.7786,-9.3867 11.1785,-17.2373 19.2,-23.552 8.0213,-6.3147 17.3225,-11.3493 27.904,-15.104 10.5813,-3.7547 21.589,-6.5707 33.024,-8.448 11.4346,-1.8773 22.9545,-3.072 34.56,-3.584 11.6053,-0.512 22.528,-0.768 32.768,-0.768 h 15.36 v -6.656 c 0,-15.3601 -5.2907,-26.88 -15.872,-34.56 -10.5815,-7.68 -24.064,-11.52 -40.448,-11.52 -12.971,0 -25.088,2.304 -36.352,6.912 -11.264,4.608 -20.992,10.8373 -29.184,18.688 l -32.256,-32.256 c 13.6533,-13.9947 29.6105,-24.064 47.872,-30.208 18.2613,-6.144 37.12,-9.216 56.576,-9.216 17.408,0 32.085,1.96265 44.032,5.888 11.9466,3.92535 21.845,8.96 29.696,15.104 7.8506,6.144 13.909,13.2266 18.176,21.248 4.2666,8.0214 7.3386,16.128 9.216,24.32 1.8772,8.192 2.9866,16.128 3.328,23.808 0.3412,7.68 0.512,14.4213 0.512,20.224 V 1006 h -55.296 z m -3.584,-76.288 h -12.8 c -8.5335,0 -18.0907,0.3413 -28.672,1.024 -10.5815,0.6827 -20.5654,2.304 -29.952,4.864 -9.387,2.56 -17.3227,6.3146 -23.808,11.264 -6.4855,4.9494 -9.728,11.8613 -9.728,20.736 0,5.8027 1.28,10.6666 3.84,14.592 2.56,3.9254 5.888,7.2533 9.984,9.984 4.096,2.7307 8.704,4.6933 13.824,5.888 5.12,1.1947 10.24,1.792 15.36,1.792 21.1627,0 36.7785,-5.0346 46.848,-15.104 10.0693,-10.0694 15.104,-23.8079 15.104,-41.216 z"
       fill="#1709b3"
       id="path25" />
  </g>
  <g
     id="Graphic_18"
     style="fill:none;fill-opacity:1;stroke:none;stroke-dasharray:none;stroke-opacity:1"
     transform="translate(-1452.824,-98.927979)">
    <rect
       x="3884.512"
       y="618.92798"
       width="61.439999"
       height="387.07199"
       fill="#1709b3"
       id="rect28" />
  </g>
</svg>
